<mxfile host="app.diagrams.net" agent="Mozilla/5.0 (Windows NT 10.0; Win64; x64) AppleWebKit/537.36 (KHTML, like Gecko) Chrome/128.0.0.0 Safari/537.36" version="24.7.10">
  <diagram name="Page-1" id="q9qyvhKwDt25vejQ4u_L">
    <mxGraphModel dx="880" dy="434" grid="1" gridSize="10" guides="1" tooltips="1" connect="1" arrows="1" fold="1" page="1" pageScale="1" pageWidth="827" pageHeight="1169" math="0" shadow="0">
      <root>
        <mxCell id="0" />
        <mxCell id="1" parent="0" />
        <mxCell id="D2nIJMGj9Lna9q1rzSpb-1" value="drug branch output" style="rounded=0;whiteSpace=wrap;html=1;dashed=1;" vertex="1" parent="1">
          <mxGeometry x="170" y="650" width="150" height="40" as="geometry" />
        </mxCell>
        <mxCell id="D2nIJMGj9Lna9q1rzSpb-2" value="protein branch output" style="rounded=0;whiteSpace=wrap;html=1;dashed=1;" vertex="1" parent="1">
          <mxGeometry x="360" y="650" width="150" height="40" as="geometry" />
        </mxCell>
        <mxCell id="D2nIJMGj9Lna9q1rzSpb-3" value="" style="endArrow=classic;startArrow=classic;html=1;rounded=0;" edge="1" parent="1">
          <mxGeometry width="50" height="50" relative="1" as="geometry">
            <mxPoint x="360" y="640" as="sourcePoint" />
            <mxPoint x="510" y="640" as="targetPoint" />
          </mxGeometry>
        </mxCell>
        <mxCell id="D2nIJMGj9Lna9q1rzSpb-6" value="128" style="edgeLabel;html=1;align=center;verticalAlign=middle;resizable=0;points=[];" vertex="1" connectable="0" parent="D2nIJMGj9Lna9q1rzSpb-3">
          <mxGeometry x="0.0267" y="4" relative="1" as="geometry">
            <mxPoint as="offset" />
          </mxGeometry>
        </mxCell>
        <mxCell id="D2nIJMGj9Lna9q1rzSpb-4" value="" style="endArrow=classic;startArrow=classic;html=1;rounded=0;" edge="1" parent="1">
          <mxGeometry width="50" height="50" relative="1" as="geometry">
            <mxPoint x="170" y="640" as="sourcePoint" />
            <mxPoint x="320" y="640" as="targetPoint" />
          </mxGeometry>
        </mxCell>
        <mxCell id="D2nIJMGj9Lna9q1rzSpb-5" value="128" style="edgeLabel;html=1;align=center;verticalAlign=middle;resizable=0;points=[];" vertex="1" connectable="0" parent="D2nIJMGj9Lna9q1rzSpb-4">
          <mxGeometry x="-0.0533" y="4" relative="1" as="geometry">
            <mxPoint as="offset" />
          </mxGeometry>
        </mxCell>
        <mxCell id="D2nIJMGj9Lna9q1rzSpb-7" value="Linear Layer&lt;div&gt;output length = 1024&lt;/div&gt;&lt;div&gt;input length =&amp;nbsp;&lt;span style=&quot;background-color: initial;&quot;&gt;128 * 2&lt;/span&gt;&lt;/div&gt;" style="rounded=0;whiteSpace=wrap;html=1;fillColor=#d5e8d4;strokeColor=#82b366;" vertex="1" parent="1">
          <mxGeometry x="160" y="550" width="360" height="50" as="geometry" />
        </mxCell>
        <mxCell id="D2nIJMGj9Lna9q1rzSpb-8" value="" style="endArrow=classic;html=1;rounded=0;entryX=0.75;entryY=1;entryDx=0;entryDy=0;dashed=1;" edge="1" parent="1" target="D2nIJMGj9Lna9q1rzSpb-7">
          <mxGeometry width="50" height="50" relative="1" as="geometry">
            <mxPoint x="430" y="630" as="sourcePoint" />
            <mxPoint x="440" y="560" as="targetPoint" />
          </mxGeometry>
        </mxCell>
        <mxCell id="D2nIJMGj9Lna9q1rzSpb-9" value="" style="endArrow=classic;html=1;rounded=0;entryX=0.75;entryY=1;entryDx=0;entryDy=0;dashed=1;" edge="1" parent="1">
          <mxGeometry width="50" height="50" relative="1" as="geometry">
            <mxPoint x="244.5" y="630" as="sourcePoint" />
            <mxPoint x="244.5" y="600" as="targetPoint" />
          </mxGeometry>
        </mxCell>
        <mxCell id="D2nIJMGj9Lna9q1rzSpb-10" value="" style="rounded=0;whiteSpace=wrap;html=1;dashed=1;" vertex="1" parent="1">
          <mxGeometry x="264" y="500" width="150" height="20" as="geometry" />
        </mxCell>
        <mxCell id="D2nIJMGj9Lna9q1rzSpb-11" value="" style="endArrow=classic;startArrow=classic;html=1;rounded=0;" edge="1" parent="1">
          <mxGeometry width="50" height="50" relative="1" as="geometry">
            <mxPoint x="264" y="490" as="sourcePoint" />
            <mxPoint x="414" y="490" as="targetPoint" />
          </mxGeometry>
        </mxCell>
        <mxCell id="D2nIJMGj9Lna9q1rzSpb-12" value="1024" style="edgeLabel;html=1;align=center;verticalAlign=middle;resizable=0;points=[];" vertex="1" connectable="0" parent="D2nIJMGj9Lna9q1rzSpb-11">
          <mxGeometry x="0.0267" y="4" relative="1" as="geometry">
            <mxPoint as="offset" />
          </mxGeometry>
        </mxCell>
        <mxCell id="D2nIJMGj9Lna9q1rzSpb-13" value="" style="endArrow=classic;html=1;rounded=0;entryX=0.75;entryY=1;entryDx=0;entryDy=0;dashed=1;" edge="1" parent="1">
          <mxGeometry width="50" height="50" relative="1" as="geometry">
            <mxPoint x="338.5" y="480" as="sourcePoint" />
            <mxPoint x="338.5" y="450" as="targetPoint" />
          </mxGeometry>
        </mxCell>
        <mxCell id="D2nIJMGj9Lna9q1rzSpb-14" value="" style="endArrow=classic;html=1;rounded=0;entryX=0.75;entryY=1;entryDx=0;entryDy=0;dashed=1;" edge="1" parent="1">
          <mxGeometry width="50" height="50" relative="1" as="geometry">
            <mxPoint x="338.5" y="550" as="sourcePoint" />
            <mxPoint x="338.5" y="520" as="targetPoint" />
          </mxGeometry>
        </mxCell>
        <mxCell id="D2nIJMGj9Lna9q1rzSpb-15" value="Linear Layer&lt;div&gt;output length = 512&lt;/div&gt;&lt;div&gt;input length = 1024&lt;/div&gt;" style="rounded=0;whiteSpace=wrap;html=1;fillColor=#d5e8d4;strokeColor=#82b366;" vertex="1" parent="1">
          <mxGeometry x="160" y="400" width="360" height="50" as="geometry" />
        </mxCell>
        <mxCell id="D2nIJMGj9Lna9q1rzSpb-16" value="" style="rounded=0;whiteSpace=wrap;html=1;dashed=1;" vertex="1" parent="1">
          <mxGeometry x="265" y="350" width="150" height="20" as="geometry" />
        </mxCell>
        <mxCell id="D2nIJMGj9Lna9q1rzSpb-17" value="" style="endArrow=classic;startArrow=classic;html=1;rounded=0;" edge="1" parent="1">
          <mxGeometry width="50" height="50" relative="1" as="geometry">
            <mxPoint x="265" y="340" as="sourcePoint" />
            <mxPoint x="415" y="340" as="targetPoint" />
          </mxGeometry>
        </mxCell>
        <mxCell id="D2nIJMGj9Lna9q1rzSpb-18" value="512" style="edgeLabel;html=1;align=center;verticalAlign=middle;resizable=0;points=[];" vertex="1" connectable="0" parent="D2nIJMGj9Lna9q1rzSpb-17">
          <mxGeometry x="0.0267" y="4" relative="1" as="geometry">
            <mxPoint as="offset" />
          </mxGeometry>
        </mxCell>
        <mxCell id="D2nIJMGj9Lna9q1rzSpb-19" value="" style="endArrow=classic;html=1;rounded=0;entryX=0.75;entryY=1;entryDx=0;entryDy=0;dashed=1;" edge="1" parent="1">
          <mxGeometry width="50" height="50" relative="1" as="geometry">
            <mxPoint x="339.5" y="330" as="sourcePoint" />
            <mxPoint x="339.5" y="300" as="targetPoint" />
          </mxGeometry>
        </mxCell>
        <mxCell id="D2nIJMGj9Lna9q1rzSpb-20" value="" style="endArrow=classic;html=1;rounded=0;entryX=0.75;entryY=1;entryDx=0;entryDy=0;dashed=1;" edge="1" parent="1">
          <mxGeometry width="50" height="50" relative="1" as="geometry">
            <mxPoint x="339.5" y="400" as="sourcePoint" />
            <mxPoint x="339.5" y="370" as="targetPoint" />
          </mxGeometry>
        </mxCell>
        <mxCell id="D2nIJMGj9Lna9q1rzSpb-21" value="Linear Layer&lt;div&gt;output length = 1&lt;/div&gt;&lt;div&gt;input length = 512&lt;/div&gt;" style="rounded=0;whiteSpace=wrap;html=1;fillColor=#d5e8d4;strokeColor=#82b366;" vertex="1" parent="1">
          <mxGeometry x="160" y="250" width="360" height="50" as="geometry" />
        </mxCell>
        <mxCell id="D2nIJMGj9Lna9q1rzSpb-22" value="afinity" style="rounded=0;whiteSpace=wrap;html=1;dashed=1;" vertex="1" parent="1">
          <mxGeometry x="265" y="200" width="150" height="20" as="geometry" />
        </mxCell>
        <mxCell id="D2nIJMGj9Lna9q1rzSpb-23" value="" style="endArrow=classic;startArrow=classic;html=1;rounded=0;" edge="1" parent="1">
          <mxGeometry width="50" height="50" relative="1" as="geometry">
            <mxPoint x="265" y="190" as="sourcePoint" />
            <mxPoint x="415" y="190" as="targetPoint" />
          </mxGeometry>
        </mxCell>
        <mxCell id="D2nIJMGj9Lna9q1rzSpb-24" value="1" style="edgeLabel;html=1;align=center;verticalAlign=middle;resizable=0;points=[];" vertex="1" connectable="0" parent="D2nIJMGj9Lna9q1rzSpb-23">
          <mxGeometry x="0.0267" y="4" relative="1" as="geometry">
            <mxPoint as="offset" />
          </mxGeometry>
        </mxCell>
        <mxCell id="D2nIJMGj9Lna9q1rzSpb-25" value="" style="endArrow=classic;html=1;rounded=0;entryX=0.75;entryY=1;entryDx=0;entryDy=0;dashed=1;" edge="1" parent="1">
          <mxGeometry width="50" height="50" relative="1" as="geometry">
            <mxPoint x="339.5" y="180" as="sourcePoint" />
            <mxPoint x="339.5" y="150" as="targetPoint" />
          </mxGeometry>
        </mxCell>
        <mxCell id="D2nIJMGj9Lna9q1rzSpb-26" value="" style="endArrow=classic;html=1;rounded=0;entryX=0.75;entryY=1;entryDx=0;entryDy=0;dashed=1;" edge="1" parent="1">
          <mxGeometry width="50" height="50" relative="1" as="geometry">
            <mxPoint x="339.5" y="250" as="sourcePoint" />
            <mxPoint x="339.5" y="220" as="targetPoint" />
          </mxGeometry>
        </mxCell>
      </root>
    </mxGraphModel>
  </diagram>
</mxfile>
